<svg xmlns="http://www.w3.org/2000/svg">
	<symbol fill="none" id="reply" viewBox="0 0 24 24">
		<path d="M5.707 10.9993L9.09619 14.3891C9.29146 14.5843 9.29146 14.9009 9.09619 15.0962C8.92263 15.2697 8.6532 15.289 8.45834 15.154L8.38909 15.0962L4.14645 10.8535C3.97288 10.68 3.9536 10.4105 4.08859 10.2157L4.14645 10.1464L8.38909 5.90377C8.58435 5.70851 8.90093 5.70851 9.09619 5.90377C9.26976 6.07734 9.28905 6.34676 9.15405 6.54163L9.09619 6.61088L5.707 9.99932L12 9.99996C16.0609 9.99996 19.368 13.2274 19.4961 17.2572L19.5 17.5C19.5 17.7761 19.2761 18 19 18C18.7239 18 18.5 17.7761 18.5 17.5C18.5 13.9882 15.715 11.1268 12.2331 11.0041L12 11L5.707 10.9993L9.09619 14.3891L5.707 10.9993Z" fill="currentColor"/>
	</symbol>
	<symbol fill="none" id="edit" viewBox="0 0 24 24">
		<path d="M15.2452 4.81755C16.332 3.73074 18.0941 3.73074 19.1809 4.81755C20.2224 5.85907 20.2658 7.52075 19.3111 8.61395L19.1809 8.75322L9.57506 18.359C9.36997 18.5641 9.12323 18.7217 8.85236 18.8215L8.68708 18.8744L4.63211 19.9803C4.28552 20.0748 3.96546 19.7862 4.00301 19.4457L4.01817 19.3663L5.12407 15.3113C5.20039 15.0315 5.33646 14.7723 5.52212 14.5513L5.63939 14.4234L15.2452 4.81755ZM14.385 7.09244L6.34649 15.1305C6.2542 15.2228 6.18117 15.3319 6.13111 15.4516L6.08884 15.5745L5.2122 18.7852L8.42397 17.9096C8.50791 17.8867 8.58815 17.853 8.66278 17.8097L8.77028 17.7377L8.86796 17.6519L16.906 9.61344L14.385 7.09244ZM18.4738 5.52465C17.8162 4.86705 16.7727 4.83052 16.0722 5.41505L15.9523 5.52465L15.092 6.38544L17.613 8.90644L18.4738 8.04612C19.1314 7.38852 19.1679 6.34503 18.5834 5.64456L18.4738 5.52465Z" fill="currentColor"/>
	</symbol>
	<symbol fill="none" id="pin" viewBox="0 0 24 24">
		<path d="M12.1221 5.13764C12.7326 3.91665 14.3599 3.65257 15.3251 4.61785L19.382 8.67468C20.3472 9.63996 20.0832 11.2672 18.8622 11.8777L15.4037 13.607C15.0751 13.7713 14.8183 14.0504 14.6818 14.3915L13.2459 17.9815C12.9792 18.648 12.1179 18.8248 11.6103 18.3172L9 15.7069L5.70711 18.9998H5V18.2927L8.29289 14.9998L5.68262 12.3896C5.17498 11.8819 5.35177 11.0206 6.01834 10.754L9.60829 9.31799C9.94939 9.18155 10.2286 8.92468 10.3928 8.59609L12.1221 5.13764ZM14.618 5.32496C14.1354 4.84232 13.3217 4.97436 13.0165 5.58486L11.2873 9.04331C11.0135 9.59095 10.5482 10.0191 9.97968 10.2465L6.38973 11.6824L12.3174 17.6101L13.7534 14.0201C13.9808 13.4516 14.4089 12.9864 14.9565 12.7125L18.415 10.9833C19.0255 10.6781 19.1575 9.86443 18.6749 9.38179L14.618 5.32496Z" fill="currentColor"/>
	</symbol>
	<symbol fill="none" id="copy" viewBox="0 0 24 24">
		<path fill-rule="evenodd" clip-rule="evenodd" d="M9.08535 5C9.29127 4.4174 9.84689 4 10.5 4H13.5C14.1531 4 14.7087 4.4174 14.9146 5H16.5C17.3284 5 18 5.67157 18 6.5V18.5C18 19.3284 17.3284 20 16.5 20H7.5C6.67157 20 6 19.3284 6 18.5V6.5C6 5.67157 6.67157 5 7.5 5H9.08535ZM10.5 5H13.5C13.7761 5 14 5.22386 14 5.5C14 5.77614 13.7761 6 13.5 6H10.5C10.2239 6 10 5.77614 10 5.5C10 5.22386 10.2239 5 10.5 5ZM9.08535 6H7.5C7.22386 6 7 6.22386 7 6.5V18.5C7 18.7761 7.22386 19 7.5 19H16.5C16.7761 19 17 18.7761 17 18.5V6.5C17 6.22386 16.7761 6 16.5 6H14.9146C14.7087 6.5826 14.1531 7 13.5 7H10.5C9.84689 7 9.29127 6.5826 9.08535 6Z" fill="currentColor"/>
	</symbol>
	<symbol fill="none" id="select" viewBox="0 0 24 24">
		<path d="M12 4C16.4183 4 20 7.58172 20 12C20 16.4183 16.4183 20 12 20C7.58172 20 4 16.4183 4 12C4 7.58172 7.58172 4 12 4ZM12 5C8.13401 5 5 8.13401 5 12C5 15.866 8.13401 19 12 19C15.866 19 19 15.866 19 12C19 8.13401 15.866 5 12 5ZM15.3584 9.64645C15.532 9.82001 15.5513 10.0894 15.4163 10.2843L15.3584 10.3536L11.3536 14.3584C11.18 14.532 10.9106 14.5513 10.7157 14.4163L10.6464 14.3584L8.64645 12.3584C8.45118 12.1632 8.45118 11.8466 8.64645 11.6513C8.82001 11.4777 9.08944 11.4585 9.28431 11.5935L9.35355 11.6513L11 13.298L14.6513 9.64645C14.8466 9.45118 15.1632 9.45118 15.3584 9.64645Z" fill="currentColor"/>
	</symbol>
	<symbol fill="none" id="delete" viewBox="0 0 24 24">
		<path d="M13.5 6C13.5 5.17157 12.8284 4.5 12 4.5C11.1716 4.5 10.5 5.17157 10.5 6H9.5C9.5 4.61929 10.6193 3.5 12 3.5C13.3807 3.5 14.5 4.61929 14.5 6H19C19.2761 6 19.5 6.22386 19.5 6.5C19.5 6.77614 19.2761 7 19 7H18.446L17.1499 18.2292C17.0335 19.2384 16.179 20 15.1631 20H8.83688C7.821 20 6.9665 19.2384 6.85006 18.2292L5.553 7H5C4.75454 7 4.55039 6.82312 4.50806 6.58988L4.5 6.5C4.5 6.22386 4.72386 6 5 6H13.5ZM17.438 7H6.561L7.84347 18.1146C7.90169 18.6192 8.32894 19 8.83688 19H15.1631C15.6711 19 16.0983 18.6192 16.1565 18.1146L17.438 7ZM10.5 9.5C10.7455 9.5 10.9496 9.65477 10.9919 9.85886L11 9.9375V16.0625C11 16.3041 10.7761 16.5 10.5 16.5C10.2545 16.5 10.0504 16.3452 10.0081 16.1411L10 16.0625V9.9375C10 9.69588 10.2239 9.5 10.5 9.5ZM13.5 9.5C13.7455 9.5 13.9496 9.65477 13.9919 9.85886L14 9.9375V16.0625C14 16.3041 13.7761 16.5 13.5 16.5C13.2545 16.5 13.0504 16.3452 13.0081 16.1411L13 16.0625V9.9375C13 9.69588 13.2239 9.5 13.5 9.5Z" fill="currentColor"/>
	</symbol>
	<symbol fill="none" id="forward" viewBox="0 0 24 24">
		<path d="M18.293 10.9998L14.9038 14.3895C14.7085 14.5848 14.7085 14.9014 14.9038 15.0966C15.0774 15.2702 15.3468 15.2895 15.5417 15.1545L15.6109 15.0966L19.8536 10.854C20.0271 10.6804 20.0464 10.411 19.9114 10.2161L19.8536 10.1469L15.6109 5.90426C15.4157 5.709 15.0991 5.709 14.9038 5.90426C14.7302 6.07783 14.711 6.34725 14.846 6.54212L14.9038 6.61137L18.293 9.99981L12 10.0005C7.93908 10.0005 4.63198 13.2279 4.50385 17.2577L4.5 17.5005C4.5 17.7766 4.72386 18.0005 5 18.0005C5.27614 18.0005 5.5 17.7766 5.5 17.5005C5.5 13.9886 8.285 11.1273 11.7669 11.0046L12 11.0005L18.293 10.9998Z" fill="currentColor"/>
	</symbol>
	<symbol fill="none" id="attach" viewBox="0 0 24 24">
		<path d="M11.7712 3.74358C14.1127 1.4 17.9117 1.4 20.2548 3.74314C22.5379 6.02621 22.5964 9.69142 20.4304 12.0454L20.2423 12.2427L11.4422 21.0409L11.4057 21.0712C9.94443 22.3879 7.69043 22.3432 6.28306 20.9358C4.96404 19.6168 4.84193 17.5541 5.91671 16.0974C5.94005 16.0521 5.9683 16.0083 6.00152 15.9672L6.05507 15.9075L6.14198 15.8198L6.28306 15.6719L6.28598 15.6748L13.7217 8.22047C13.9876 7.95385 14.4043 7.92909 14.6982 8.14656L14.7824 8.21906C15.049 8.48497 15.0738 8.9016 14.8563 9.19551L14.7838 9.27972L7.18917 16.8928C6.47153 17.7684 6.52141 19.0627 7.33881 19.8801C8.16787 20.7091 9.48752 20.7486 10.3633 19.9985L19.196 11.1681C20.9515 9.41041 20.9515 6.56116 19.1941 4.8038C17.4917 3.10136 14.7646 3.04816 12.9981 4.6442L12.8302 4.8038L12.8176 4.81812L3.28131 14.3544C2.98841 14.6473 2.51354 14.6473 2.22065 14.3544C1.95438 14.0882 1.93017 13.6715 2.14803 13.3779L2.22065 13.2938L11.7695 3.74314L11.7712 3.74358Z" fill="currentColor"/>
	</symbol>
	<symbol fill="none" id="sendEmodji" viewBox="0 0 24 24">
		<path d="M11.9996 1.99902C17.5233 1.99902 22.0011 6.47687 22.0011 12.0006C22.0011 17.5243 17.5233 22.0021 11.9996 22.0021C6.47589 22.0021 1.99805 17.5243 1.99805 12.0006C1.99805 6.47687 6.47589 1.99902 11.9996 1.99902ZM11.9996 3.49902C7.30432 3.49902 3.49805 7.3053 3.49805 12.0006C3.49805 16.6959 7.30432 20.5021 11.9996 20.5021C16.6949 20.5021 20.5011 16.6959 20.5011 12.0006C20.5011 7.3053 16.6949 3.49902 11.9996 3.49902ZM8.46134 14.7839C9.31047 15.8616 10.6015 16.5021 11.9996 16.5021C13.3958 16.5021 14.6853 15.8633 15.5345 14.7881C15.7913 14.463 16.2629 14.4076 16.588 14.6644C16.913 14.9211 16.9684 15.3927 16.7117 15.7178C15.5809 17.1495 13.8597 18.0021 11.9996 18.0021C10.1369 18.0021 8.41371 17.1472 7.28311 15.7122C7.02676 15.3869 7.08271 14.9153 7.40806 14.6589C7.73342 14.4026 8.20499 14.4585 8.46134 14.7839ZM9.00005 8.75121C9.69001 8.75121 10.2493 9.31054 10.2493 10.0005C10.2493 10.6905 9.69001 11.2498 9.00005 11.2498C8.31008 11.2498 7.75076 10.6905 7.75076 10.0005C7.75076 9.31054 8.31008 8.75121 9.00005 8.75121ZM15 8.75121C15.69 8.75121 16.2493 9.31054 16.2493 10.0005C16.2493 10.6905 15.69 11.2498 15 11.2498C14.3101 11.2498 13.7508 10.6905 13.7508 10.0005C13.7508 9.31054 14.3101 8.75121 15 8.75121Z" fill="currentColor"/>
	</symbol>
	<symbol fill="none" id="sendVoice" viewBox="0 0 24 24">
		<path d="M18.25 11C18.6297 11 18.9435 11.2822 18.9932 11.6482L19 11.75V12.25C19 15.8094 16.245 18.7254 12.751 18.9817L12.75 21.25C12.75 21.6642 12.4142 22 12 22C11.6203 22 11.3065 21.7178 11.2568 21.3518L11.25 21.25L11.25 18.9818C7.83323 18.7316 5.12283 15.938 5.00406 12.4863L5 12.25V11.75C5 11.3358 5.33579 11 5.75 11C6.1297 11 6.44349 11.2822 6.49315 11.6482L6.5 11.75V12.25C6.5 15.077 8.73445 17.3821 11.5336 17.4956L11.75 17.5H12.25C15.077 17.5 17.3821 15.2656 17.4956 12.4664L17.5 12.25V11.75C17.5 11.3358 17.8358 11 18.25 11ZM12 2C14.2091 2 16 3.79086 16 6V12C16 14.2091 14.2091 16 12 16C9.79086 16 8 14.2091 8 12V6C8 3.79086 9.79086 2 12 2ZM12 3.5C10.6193 3.5 9.5 4.61929 9.5 6V12C9.5 13.3807 10.6193 14.5 12 14.5C13.3807 14.5 14.5 13.3807 14.5 12V6C14.5 4.61929 13.3807 3.5 12 3.5Z" fill="currentColor"/>
	</symbol>
	<symbol fill="none" id="sendMessage" viewBox="0 0 24 24">
		<path d="M12.8147 12.1974L5.28344 13.4526C5.10705 13.482 4.95979 13.6034 4.89723 13.7709L2.29933 20.7283C2.05066 21.3678 2.72008 21.9778 3.33375 21.671L21.3337 12.671C21.8865 12.3946 21.8865 11.6057 21.3337 11.3293L3.33375 2.32933C2.72008 2.0225 2.05066 2.63254 2.29933 3.27199L4.89723 10.2294C4.95979 10.3969 5.10705 10.5183 5.28344 10.5477L12.8147 11.8029C12.9236 11.821 12.9972 11.9241 12.9791 12.033C12.965 12.1173 12.899 12.1834 12.8147 12.1974Z" fill="currentColor"/>
	</symbol>
</svg>