<svg xmlns="http://www.w3.org/2000/svg">
	<symbol fill="none" id="check" viewBox="0 0 20 20">
		<path fill-rule="evenodd" clip-rule="evenodd" d="M17.5303 5.21967C17.8232 5.51256 17.8232 5.98744 17.5303 6.28033L8.03033 15.7803C7.73744 16.0732 7.26256 16.0732 6.96967 15.7803L2.46967 11.2803C2.17678 10.9874 2.17678 10.5126 2.46967 10.2197C2.76256 9.92678 3.23744 9.92678 3.53033 10.2197L7.5 14.1893L16.4697 5.21967C16.7626 4.92678 17.2374 4.92678 17.5303 5.21967Z" fill="currentColor"/>
	</symbol>
	<symbol fill="none" id="doubleCheck" viewBox="0 0 20 20">
		<path fill-rule="evenodd" clip-rule="evenodd" d="M15.5303 5.21967C15.8232 5.51256 15.8232 5.98744 15.5303 6.28033L6.03033 15.7803C5.73744 16.0732 5.26256 16.0732 4.96967 15.7803L0.46967 11.2803C0.176777 10.9874 0.176777 10.5126 0.46967 10.2197C0.762563 9.92678 1.23744 9.92678 1.53033 10.2197L5.5 14.1893L14.4697 5.21967C14.7626 4.92678 15.2374 4.92678 15.5303 5.21967ZM19.5303 5.21967C19.8232 5.51256 19.8232 5.98744 19.5303 6.28033L10.0303 15.7803C9.73744 16.0732 9.26256 16.0732 8.96967 15.7803C8.67678 15.4874 8.67678 15.0126 8.96967 14.7197L18.4697 5.21967C18.7626 4.92678 19.2374 4.92678 19.5303 5.21967Z" fill="currentColor"/>
	</symbol>
</svg>