<svg xmlns="http://www.w3.org/2000/svg">
	<symbol fill="none" id="readMessage" viewBox="0 0 24 24">
		<path d="M16.185 7.16628C16.3837 7.37903 16.3739 7.71404 16.1631 7.91455L7.84325 15.827C7.5942 16.0639 7.20326 16.0566 6.96307 15.8106L4.15091 12.9306C3.94757 12.7224 3.95003 12.3872 4.15641 12.1821C4.36278 11.9769 4.69493 11.9794 4.89827 12.1876L7.42234 14.7725L15.4435 7.14413C15.6543 6.94362 15.9863 6.95353 16.185 7.16628Z" fill="currentColor"/>
		<path fill-rule="evenodd" clip-rule="evenodd" d="M19.8581 7.16834C20.0563 7.38162 20.0456 7.7166 19.8342 7.91655L11.4408 15.8567C11.2294 16.0566 10.8974 16.0458 10.6993 15.8325C10.5011 15.6193 10.5118 15.2843 10.7232 15.0843L19.1166 7.1442C19.328 6.94425 19.66 6.95506 19.8581 7.16834Z" fill="currentColor"/>
	</symbol>
	<symbol fill="none" id="unreadMessage" viewBox="0 0 24 24">
		<path d="M18.185 8.16628C18.3837 8.37903 18.3739 8.71404 18.1631 8.91455L9.84325 16.827C9.5942 17.0639 9.20326 17.0566 8.96307 16.8106L6.15091 13.9306C5.94757 13.7224 5.95003 13.3872 6.15641 13.1821C6.36278 12.9769 6.69493 12.9794 6.89827 13.1876L9.42234 15.7725L17.4435 8.14413C17.6543 7.94362 17.9863 7.95353 18.185 8.16628Z" fill="currentColor"/>
	</symbol>
	<symbol fill="none" id="pinnedMessage" viewBox="0 0 24 24">
		<path d="M15.3251 4.61785C14.3599 3.65257 12.7326 3.91665 12.1221 5.13764L10.3928 8.59609C10.2286 8.92468 9.94939 9.18155 9.60829 9.31799L6.01834 10.754C5.35177 11.0206 5.17498 11.8819 5.68262 12.3896L8.29289 14.9998L5 18.2927V18.9998H5.70711L9 15.7069L11.6103 18.3172C12.1179 18.8248 12.9792 18.648 13.2459 17.9815L14.6818 14.3915C14.8183 14.0504 15.0751 13.7713 15.4037 13.607L18.8622 11.8777C20.0832 11.2672 20.3472 9.63996 19.382 8.67468L15.3251 4.61785Z" fill="currentColor"/>
	</symbol>
</svg>