<svg xmlns="http://www.w3.org/2000/svg">
	<symbol fill="none" id="settings" viewBox="0 0 20 20">
		<path xmlns="http://www.w3.org/2000/svg" fill-rule="evenodd" clip-rule="evenodd" d="M7.5 2.686a.833.833 0 0 1 .647-.813 8.333 8.333 0 0 1 3.705.002.833.833 0 0 1 .648.813v1.539a.834.834 0 0 0 1.25.721l1.334-.77a.833.833 0 0 1 1.029.155 8.417 8.417 0 0 1 1.85 3.207.833.833 0 0 1-.379.968l-1.334.77a.833.833 0 0 0 0 1.444l1.333.769a.833.833 0 0 1 .38.967 8.334 8.334 0 0 1-1.85 3.21.833.833 0 0 1-1.029.155l-1.334-.771a.834.834 0 0 0-1.25.721v1.542a.833.833 0 0 1-.648.812 8.333 8.333 0 0 1-3.705-.002.833.833 0 0 1-.647-.813v-1.539a.833.833 0 0 0-1.25-.721l-1.334.77a.833.833 0 0 1-1.029-.155 8.334 8.334 0 0 1-1.104-1.5 8.333 8.333 0 0 1-.746-1.707.833.833 0 0 1 .379-.968l1.333-.77a.834.834 0 0 0 0-1.444L2.417 8.51a.833.833 0 0 1-.38-.967 8.333 8.333 0 0 1 1.85-3.209.833.833 0 0 1 1.028-.155l1.335.77a.833.833 0 0 0 1.25-.721V2.686ZM10 12.5a2.5 2.5 0 1 0 0-5 2.5 2.5 0 0 0 0 5Z" fill="currentColor"/>
	</symbol>
	<symbol fill="none" id="arrowUp" viewBox="0 0 20 20">
		<path d="M14.1667 11.6667L9.99999 7.5L5.83333 11.6667" stroke="currentColor" stroke-width="1.66667" stroke-linecap="round" stroke-linejoin="round"/>
	</symbol>
	<symbol fill="none" id="newChat" viewBox="0 0 20 20">
		<path fill-rule="evenodd" clip-rule="evenodd" d="M2.48037 1.25366C3.37895 0.773093 4.26363 0.606061 6.21548 0.606061H13.1785C13.6805 0.606061 14.0876 1.01307 14.0876 1.51515C14.0876 2.01723 13.6805 2.42424 13.1785 2.42424H6.21548C4.35972 2.42424 3.83811 2.58939 3.33783 2.85695C2.8669 3.10881 2.50275 3.47296 2.25089 3.94389C1.98333 4.44418 1.81818 4.96578 1.81818 6.82154V13.7845C1.81818 15.6403 1.98333 16.1619 2.25089 16.6622C2.50275 17.1331 2.8669 17.4973 3.33783 17.7491C3.83811 18.0167 4.35972 18.1818 6.21548 18.1818H13.1785C15.0342 18.1818 15.5558 18.0167 16.0561 17.7491C16.527 17.4973 16.8912 17.1331 17.143 16.6622C17.4106 16.1619 17.5758 15.6403 17.5758 13.7845V6.82154C17.5758 6.31946 17.9828 5.91245 18.4848 5.91245C18.9869 5.91245 19.3939 6.31946 19.3939 6.82154V13.7845C19.3939 15.7364 19.2269 16.6211 18.7463 17.5196C18.325 18.3074 17.7013 18.9311 16.9136 19.3524C16.015 19.833 15.1303 20 13.1785 20H6.21548C4.26363 20 3.37895 19.833 2.48037 19.3524C1.69259 18.9311 1.0689 18.3074 0.647594 17.5196C0.167032 16.6211 0 15.7364 0 13.7845V6.82154C0 4.86969 0.167032 3.98501 0.647594 3.08643C1.0689 2.29865 1.69259 1.67496 2.48037 1.25366Z" fill="currentColor"/>
		<path fill-rule="evenodd" clip-rule="evenodd" d="M17.6081 2.39194C17.969 2.75291 17.969 3.33816 17.6081 3.69913L9.90346 11.4038C9.56153 11.7457 8.54689 12.2959 7.78294 12.6847C7.47426 12.8417 7.15826 12.5257 7.31535 12.217C7.7041 11.4531 8.25434 10.4385 8.59627 10.0966L16.3009 2.39194C16.6618 2.03097 17.2471 2.03097 17.6081 2.39194Z" fill="currentColor"/>
		<path d="M20 0.909091C20 1.41117 19.593 1.81818 19.0909 1.81818C18.5888 1.81818 18.1818 1.41117 18.1818 0.909091C18.1818 0.407014 18.5888 0 19.0909 0C19.593 0 20 0.407014 20 0.909091Z" fill="currentColor"/>
	</symbol>
	<symbol fill="none" id="search" viewBox="0 0 20 20">
		<path d="M12.6031 14.7937C14.6705 14.7937 16.4199 14.0776 17.8515 12.6452C19.2831 11.2129 19.9992 9.46344 20 7.39687C20.0008 5.3303 19.2846 3.58084 17.8515 2.14851C16.4184 0.716169 14.6689 0 12.6031 0C10.5373 0 8.78748 0.716169 7.35363 2.14851C5.91977 3.58084 5.20398 5.3303 5.20626 7.39687C5.20626 8.23139 5.33902 9.01849 5.60455 9.75818C5.87008 10.4979 6.23044 11.1522 6.68563 11.7212L0.312947 18.0939C0.104317 18.3025 9.08009e-07 18.568 9.08009e-07 18.8905C9.08009e-07 19.2129 0.104317 19.4784 0.312947 19.6871C0.521577 19.8957 0.787104 20 1.10953 20C1.43196 20 1.69749 19.8957 1.90612 19.6871L8.2788 13.3144C8.84779 13.7696 9.50213 14.1299 10.2418 14.3954C10.9815 14.661 11.7686 14.7937 12.6031 14.7937ZM12.6031 12.5178C11.1807 12.5178 9.97136 12.0201 8.97525 11.0247C7.97914 10.0294 7.48146 8.8201 7.48222 7.39687C7.48298 5.97364 7.98065 4.76472 8.97525 3.77013C9.96984 2.77553 11.1791 2.27748 12.6031 2.27596C14.0271 2.27444 15.236 2.7725 16.2299 3.77013C17.2237 4.76776 17.7218 5.97667 17.724 7.39687C17.7263 8.81707 17.2283 10.0264 16.2299 11.0247C15.2315 12.0231 14.0226 12.5208 12.6031 12.5178Z" fill="currentColor"/>
	</symbol>
	<symbol fill="none" id="profile" viewBox="0 0 20 20">
		<path d="M10 0C4.48 0 0 4.48 0 10C0 15.52 4.48 20 10 20C15.52 20 20 15.52 20 10C20 4.48 15.52 0 10 0ZM10 4C11.93 4 13.5 5.57 13.5 7.5C13.5 9.43 11.93 11 10 11C8.07 11 6.5 9.43 6.5 7.5C6.5 5.57 8.07 4 10 4ZM10 18C7.97 18 5.57 17.18 3.86 15.12C5.61182 13.7462 7.77376 12.9996 10 12.9996C12.2262 12.9996 14.3882 13.7462 16.14 15.12C14.43 17.18 12.03 18 10 18Z" fill="currentColor"/>
	</symbol>
	<symbol fill="none" id="chats" viewBox="0 0 20 20">
		<path d="M10 0.00175599C4.47755 0.00175599 0 3.58074 0 7.99543C0 10.521 1.46988 12.7709 3.75831 14.2352C3.43264 15.5344 2.78277 16.9714 1.52683 18.2434C1.52683 18.2434 4.45929 18.0099 6.53012 15.4844C6.64914 15.5195 6.77254 15.5458 6.89303 15.5774C6.7758 15.1698 6.71487 14.7419 6.71267 14.3107C6.71267 11.3321 9.46988 8.99969 12.9923 8.99969C15.521 8.99969 17.6495 10.2076 18.6513 11.9896C19.5042 10.8133 20 9.45003 20 7.9928C20 3.57898 15.5225 0 10 0V0.00175599ZM18.5396 14.3124C18.5396 11.8632 16.057 9.87666 12.9901 9.87666C9.92698 9.87666 7.44213 11.8641 7.44213 14.3133C7.44213 16.7625 9.92698 18.7491 12.9916 18.7491C13.6692 18.7491 14.3154 18.6472 14.9164 18.4682C16.065 19.871 17.6911 20 17.6911 20C16.9953 19.2942 16.6353 18.4962 16.4542 17.7755C17.7233 16.9635 18.5396 15.7143 18.5396 14.3124Z" fill="currentColor"/>
	</symbol>
	<symbol fill="none" id="more" viewBox="0 0 4 20">
		<path d="M2 13.4525C2.53043 13.4525 3.03914 13.655 3.41421 14.0154C3.78929 14.3758 4 14.8646 4 15.3743C4 15.884 3.78929 16.3728 3.41421 16.7332C3.03914 17.0936 2.53043 17.2961 2 17.2961C1.46957 17.2961 0.96086 17.0936 0.585787 16.7332C0.210714 16.3728 0 15.884 0 15.3743C0 14.8646 0.210714 14.3758 0.585787 14.0154C0.96086 13.655 1.46957 13.4525 2 13.4525ZM2 6.72625C2.53043 6.72625 3.03914 6.92872 3.41421 7.28912C3.78929 7.64953 4 8.13834 4 8.64803C4 9.15772 3.78929 9.64653 3.41421 10.0069C3.03914 10.3673 2.53043 10.5698 2 10.5698C1.46957 10.5698 0.96086 10.3673 0.585787 10.0069C0.210714 9.64653 0 9.15772 0 8.64803C0 8.13834 0.210714 7.64953 0.585787 7.28912C0.96086 6.92872 1.46957 6.72625 2 6.72625ZM2 0C2.53043 0 3.03914 0.202473 3.41421 0.562878C3.78929 0.923282 4 1.4121 4 1.92178C4 2.43147 3.78929 2.92029 3.41421 3.28069C3.03914 3.6411 2.53043 3.84357 2 3.84357C1.46957 3.84357 0.96086 3.6411 0.585787 3.28069C0.210714 2.92029 0 2.43147 0 1.92178C0 1.4121 0.210714 0.923282 0.585787 0.562878C0.96086 0.202473 1.46957 0 2 0Z" fill="currentColor"/>
	</symbol>
	<symbol fill="none" id="back" viewBox="0 0 4 20">
		<path fill-rule="evenodd" clip-rule="evenodd" d="M12.5256 4.21698C12.8187 4.50968 12.819 4.98456 12.5263 5.27764L7.81003 9.99995L12.5262 14.7212C12.819 15.0142 12.8187 15.4891 12.5257 15.7818C12.2326 16.0746 11.7577 16.0743 11.465 15.7813L6.21938 10.5301C5.92689 10.2373 5.92686 9.76286 6.21933 9.47002L11.4649 4.21766C11.7576 3.92458 12.2325 3.92427 12.5256 4.21698Z" fill="currentColor"/>
	</symbol>
</svg>
