<svg xmlns="http://www.w3.org/2000/svg">
	<symbol fill="none" id="settings" viewBox="0 0 20 20">
		<path xmlns="http://www.w3.org/2000/svg" fill-rule="evenodd" clip-rule="evenodd" d="M7.5 2.686a.833.833 0 0 1 .647-.813 8.333 8.333 0 0 1 3.705.002.833.833 0 0 1 .648.813v1.539a.834.834 0 0 0 1.25.721l1.334-.77a.833.833 0 0 1 1.029.155 8.417 8.417 0 0 1 1.85 3.207.833.833 0 0 1-.379.968l-1.334.77a.833.833 0 0 0 0 1.444l1.333.769a.833.833 0 0 1 .38.967 8.334 8.334 0 0 1-1.85 3.21.833.833 0 0 1-1.029.155l-1.334-.771a.834.834 0 0 0-1.25.721v1.542a.833.833 0 0 1-.648.812 8.333 8.333 0 0 1-3.705-.002.833.833 0 0 1-.647-.813v-1.539a.833.833 0 0 0-1.25-.721l-1.334.77a.833.833 0 0 1-1.029-.155 8.334 8.334 0 0 1-1.104-1.5 8.333 8.333 0 0 1-.746-1.707.833.833 0 0 1 .379-.968l1.333-.77a.834.834 0 0 0 0-1.444L2.417 8.51a.833.833 0 0 1-.38-.967 8.333 8.333 0 0 1 1.85-3.209.833.833 0 0 1 1.028-.155l1.335.77a.833.833 0 0 0 1.25-.721V2.686ZM10 12.5a2.5 2.5 0 1 0 0-5 2.5 2.5 0 0 0 0 5Z" fill="currentColor"/>
	</symbol>
</svg>
