<svg xmlns="http://www.w3.org/2000/svg">
	<symbol fill="none" id="burgerMenu" viewBox="0 0 24 24">
		<path d="M4.5 12H19.5M4.5 7H19.5M4.5 17H19.5" stroke="currentColor" stroke-width="2" stroke-linecap="round"/>
	</symbol>
	<symbol fill="none" id="clearSearch" viewBox="0 0 24 24">
		<path d="M16.875 7.125L7.125 16.875M7.125 7.125L16.875 16.875" stroke="currentColor" stroke-width="2.25" stroke-linecap="round" stroke-linejoin="round"/>
	</symbol>
	<symbol fill="none" id="searchMessage" viewBox="0 0 24 24">
		<path d="M10.5 5C13.5376 5 16 7.46243 16 10.5C16 11.8388 15.5217 13.0659 14.7266 14.0196L18.8536 18.1464C19.0488 18.3417 19.0488 18.6583 18.8536 18.8536C18.68 19.0271 18.4106 19.0464 18.2157 18.9114L18.1464 18.8536L14.0196 14.7266C13.0659 15.5217 11.8388 16 10.5 16C7.46243 16 5 13.5376 5 10.5C5 7.46243 7.46243 5 10.5 5ZM10.5 6C8.01472 6 6 8.01472 6 10.5C6 12.9853 8.01472 15 10.5 15C12.9853 15 15 12.9853 15 10.5C15 8.01472 12.9853 6 10.5 6Z" fill="currentColor"/>
	</symbol>
	<symbol fill="none" id="moreOptions" viewBox="0 0 24 24">
		<path d="M12 8C11.3096 8 10.75 7.44036 10.75 6.75C10.75 6.05964 11.3096 5.5 12 5.5C12.6904 5.5 13.25 6.05964 13.25 6.75C13.25 7.44036 12.6904 8 12 8ZM12 13.25C11.3096 13.25 10.75 12.6904 10.75 12C10.75 11.3096 11.3096 10.75 12 10.75C12.6904 10.75 13.25 11.3096 13.25 12C13.25 12.6904 12.6904 13.25 12 13.25ZM10.75 17.25C10.75 17.9404 11.3096 18.5 12 18.5C12.6904 18.5 13.25 17.9404 13.25 17.25C13.25 16.5596 12.6904 16 12 16C11.3096 16 10.75 16.5596 10.75 17.25Z" fill="currentColor"/>
	</symbol>
	<symbol fill="none" id="scrollToBottom" viewBox="0 0 24 24">
		<path d="M12 6L12 17M12 17L7 12M12 17L17 12" stroke="currentColor" stroke-linecap="round" stroke-linejoin="round"/>
	</symbol>
</svg>