<svg xmlns="http://www.w3.org/2000/svg">
	<symbol fill="none" id="burgerMenu" viewBox="0 0 24 24">
		<path d="M4.5 12H19.5M4.5 7H19.5M4.5 17H19.5" stroke="currentColor" stroke-width="2" stroke-linecap="round"/>
	</symbol>
	<symbol fill="none" id="clearSearch" viewBox="0 0 24 24">
		<path d="M16.875 7.125L7.125 16.875M7.125 7.125L16.875 16.875" stroke="currentColor" stroke-width="2.25" stroke-linecap="round" stroke-linejoin="round"/>
	</symbol>
	<symbol fill="none" id="searchMessage" viewBox="0 0 24 24">
		<path d="M10.5 5C13.5376 5 16 7.46243 16 10.5C16 11.8388 15.5217 13.0659 14.7266 14.0196L18.8536 18.1464C19.0488 18.3417 19.0488 18.6583 18.8536 18.8536C18.68 19.0271 18.4106 19.0464 18.2157 18.9114L18.1464 18.8536L14.0196 14.7266C13.0659 15.5217 11.8388 16 10.5 16C7.46243 16 5 13.5376 5 10.5C5 7.46243 7.46243 5 10.5 5ZM10.5 6C8.01472 6 6 8.01472 6 10.5C6 12.9853 8.01472 15 10.5 15C12.9853 15 15 12.9853 15 10.5C15 8.01472 12.9853 6 10.5 6Z" fill="currentColor"/>
	</symbol>
	<symbol fill="none" id="chatData" viewBox="0 0 24 24">
		<path d="M12.4809 14.8423H17.4C18.2962 14.8423 19 14.1288 19 13.2764V6.56582C19 5.71348 18.2962 5 17.4 5H6.6C5.70383 5 5 5.71348 5 6.56582V13.2764C5 14.1288 5.70383 14.8423 6.6 14.8423H8.19908L8.2 18L8.20346 17.9997L8.20502 17.9988L12.4809 14.8423ZM8.79895 18.8034C8.35668 19.1298 7.73 19.0406 7.39921 18.6042C7.26989 18.4335 7.2 18.2262 7.2 18.0133L7.19937 15.8423H6.6C5.16406 15.8423 4 14.6935 4 13.2764V6.56582C4 5.14876 5.16406 4 6.6 4H17.4C18.8359 4 20 5.14876 20 6.56582V13.2764C20 14.6935 18.8359 15.8423 17.4 15.8423H12.81L8.79895 18.8034Z" fill="currentColor"/>
		<path fill-rule="evenodd" clip-rule="evenodd" d="M12 6.5C12.2761 6.5 12.5 6.72386 12.5 7V13C12.5 13.2761 12.2761 13.5 12 13.5C11.7239 13.5 11.5 13.2761 11.5 13V7C11.5 6.72386 11.7239 6.5 12 6.5ZM9 7.5C9.27614 7.5 9.5 7.72386 9.5 8V12C9.5 12.2761 9.27614 12.5 9 12.5C8.72386 12.5 8.5 12.2761 8.5 12V8C8.5 7.72386 8.72386 7.5 9 7.5ZM15 8C15.2761 8 15.5 8.22386 15.5 8.5V11.5C15.5 11.7761 15.2761 12 15 12C14.7239 12 14.5 11.7761 14.5 11.5V8.5C14.5 8.22386 14.7239 8 15 8Z" fill="currentColor"/>
	</symbol>
	<symbol fill="none" id="moreOptions" viewBox="0 0 24 24">
		<path d="M12 8C11.3096 8 10.75 7.44036 10.75 6.75C10.75 6.05964 11.3096 5.5 12 5.5C12.6904 5.5 13.25 6.05964 13.25 6.75C13.25 7.44036 12.6904 8 12 8ZM12 13.25C11.3096 13.25 10.75 12.6904 10.75 12C10.75 11.3096 11.3096 10.75 12 10.75C12.6904 10.75 13.25 11.3096 13.25 12C13.25 12.6904 12.6904 13.25 12 13.25ZM10.75 17.25C10.75 17.9404 11.3096 18.5 12 18.5C12.6904 18.5 13.25 17.9404 13.25 17.25C13.25 16.5596 12.6904 16 12 16C11.3096 16 10.75 16.5596 10.75 17.25Z" fill="currentColor"/>
	</symbol>
	<symbol fill="none" id="scrollToBottom" viewBox="0 0 24 24">
		<path d="M12 6L12 17M12 17L7 12M12 17L17 12" stroke="currentColor" stroke-linecap="round" stroke-linejoin="round"/>
	</symbol>
	<symbol fill="none" id="newChat" viewBox="0 0 24 24">
		<path fill-rule="evenodd" clip-rule="evenodd" d="M21.0142 3.19621C21.2321 2.9026 21.2079 2.48594 20.9416 2.21967C20.6487 1.92678 20.1739 1.92678 19.881 2.21967L19.4672 2.63346L20.5278 3.69412L20.9416 3.28033L21.0142 3.19621ZM18.9368 3.16379L19.9975 4.22445L10.2544 13.9675C9.4618 14.7601 8.44526 15.0963 8.21181 15.0009L8.18033 14.981C8.03745 14.8381 8.32213 13.8613 9.05903 13.0484L9.19377 12.9069L18.9368 3.16379ZM4.75 3.65774H14.25C14.6642 3.65774 15 3.99352 15 4.40774C15 4.78743 14.7178 5.10123 14.3518 5.15089L14.25 5.15774H4.75C4.10279 5.15774 3.57047 5.64961 3.50645 6.27993L3.5 6.40774V18.4077C3.5 19.0549 3.99187 19.5873 4.62219 19.6513L4.75 19.6577H16.75C17.3972 19.6577 17.9295 19.1659 17.9935 18.5355L18 18.4077V8.76327C18 8.34905 18.3358 8.01327 18.75 8.01327C19.1297 8.01327 19.4435 8.29542 19.4932 8.6615L19.5 8.76327V18.4077C19.5 19.8703 18.3583 21.0661 16.9175 21.1527L16.75 21.1577H4.75C3.28747 21.1577 2.0916 20.016 2.00502 18.5753L2 18.4077V6.40774C2 4.9452 3.1417 3.74933 4.58248 3.66275L4.75 3.65774Z" fill="currentColor"/>
	</symbol>
	<symbol fill="none" id="closeChat" viewBox="0 0 24 24">
		<path d="M9.43468 12L14.7096 6.70057C15.1019 6.30647 15.096 5.67333 14.6964 5.28642C14.2968 4.8995 13.6549 4.90533 13.2626 5.29943L7.29039 11.2994C6.9032 11.6884 6.9032 12.3116 7.29039 12.7006L13.2626 18.7006C13.6549 19.0947 14.2968 19.1005 14.6964 18.7136C15.096 18.3267 15.1019 17.6935 14.7096 17.2994L9.43468 12Z" fill="currentColor"/>
	</symbol>
</svg>