<svg xmlns="http://www.w3.org/2000/svg">
	<symbol fill="none" id="burgerMenu" viewBox="0 0 24 24">
		<path d="M4.5 12H19.5M4.5 7H19.5M4.5 17H19.5" stroke="currentColor" stroke-width="2" stroke-linecap="round"/>
	</symbol>
	<symbol fill="none" id="clearSearch" viewBox="0 0 24 24">
		<path d="M16.875 7.125L7.125 16.875M7.125 7.125L16.875 16.875" stroke="currentColor" stroke-width="2.25" stroke-linecap="round" stroke-linejoin="round"/>
	</symbol>
	<symbol fill="none" id="searchMessage" viewBox="0 0 24 24">
		<path d="M10.5 5C13.5376 5 16 7.46243 16 10.5C16 11.8388 15.5217 13.0659 14.7266 14.0196L18.8536 18.1464C19.0488 18.3417 19.0488 18.6583 18.8536 18.8536C18.68 19.0271 18.4106 19.0464 18.2157 18.9114L18.1464 18.8536L14.0196 14.7266C13.0659 15.5217 11.8388 16 10.5 16C7.46243 16 5 13.5376 5 10.5C5 7.46243 7.46243 5 10.5 5ZM10.5 6C8.01472 6 6 8.01472 6 10.5C6 12.9853 8.01472 15 10.5 15C12.9853 15 15 12.9853 15 10.5C15 8.01472 12.9853 6 10.5 6Z" fill="currentColor"/>
	</symbol>
	<symbol fill="none" id="chatData" viewBox="0 0 24 24">
		<path d="M12.4809 14.8423H17.4C18.2962 14.8423 19 14.1288 19 13.2764V6.56582C19 5.71348 18.2962 5 17.4 5H6.6C5.70383 5 5 5.71348 5 6.56582V13.2764C5 14.1288 5.70383 14.8423 6.6 14.8423H8.19908L8.2 18L8.20346 17.9997L8.20502 17.9988L12.4809 14.8423ZM8.79895 18.8034C8.35668 19.1298 7.73 19.0406 7.39921 18.6042C7.26989 18.4335 7.2 18.2262 7.2 18.0133L7.19937 15.8423H6.6C5.16406 15.8423 4 14.6935 4 13.2764V6.56582C4 5.14876 5.16406 4 6.6 4H17.4C18.8359 4 20 5.14876 20 6.56582V13.2764C20 14.6935 18.8359 15.8423 17.4 15.8423H12.81L8.79895 18.8034Z" fill="currentColor"/>
		<path fill-rule="evenodd" clip-rule="evenodd" d="M12 6.5C12.2761 6.5 12.5 6.72386 12.5 7V13C12.5 13.2761 12.2761 13.5 12 13.5C11.7239 13.5 11.5 13.2761 11.5 13V7C11.5 6.72386 11.7239 6.5 12 6.5ZM9 7.5C9.27614 7.5 9.5 7.72386 9.5 8V12C9.5 12.2761 9.27614 12.5 9 12.5C8.72386 12.5 8.5 12.2761 8.5 12V8C8.5 7.72386 8.72386 7.5 9 7.5ZM15 8C15.2761 8 15.5 8.22386 15.5 8.5V11.5C15.5 11.7761 15.2761 12 15 12C14.7239 12 14.5 11.7761 14.5 11.5V8.5C14.5 8.22386 14.7239 8 15 8Z" fill="currentColor"/>
	</symbol>
	<symbol fill="none" id="moreOptions" viewBox="0 0 24 24">
		<path d="M12 8C11.3096 8 10.75 7.44036 10.75 6.75C10.75 6.05964 11.3096 5.5 12 5.5C12.6904 5.5 13.25 6.05964 13.25 6.75C13.25 7.44036 12.6904 8 12 8ZM12 13.25C11.3096 13.25 10.75 12.6904 10.75 12C10.75 11.3096 11.3096 10.75 12 10.75C12.6904 10.75 13.25 11.3096 13.25 12C13.25 12.6904 12.6904 13.25 12 13.25ZM10.75 17.25C10.75 17.9404 11.3096 18.5 12 18.5C12.6904 18.5 13.25 17.9404 13.25 17.25C13.25 16.5596 12.6904 16 12 16C11.3096 16 10.75 16.5596 10.75 17.25Z" fill="currentColor"/>
	</symbol>
	<symbol fill="none" id="scrollToBottom" viewBox="0 0 24 24">
		<path d="M12 6L12 17M12 17L7 12M12 17L17 12" stroke="currentColor" stroke-linecap="round" stroke-linejoin="round"/>
	</symbol>
	<symbol fill="none" id="newChat" viewBox="0 0 24 24">
		<path d="M15.5044 3.44755C16.1765 2.79092 17.0804 2.42574 18.02 2.43121C18.9596 2.43668 19.8592 2.81237 20.5236 3.47678C21.188 4.14119 21.5637 5.04076 21.5692 5.98036C21.5746 6.91997 21.2095 7.82385 20.5528 8.49595L19.75 9.29875L14.7016 4.25035L15.5044 3.44755ZM13.8532 5.09995L4.25443 14.6988C3.86176 15.0921 3.58914 15.589 3.46843 16.1316L2.41483 20.8716C2.39279 20.9702 2.39602 21.0728 2.42422 21.1698C2.45242 21.2669 2.50467 21.3552 2.57613 21.4267C2.64758 21.4981 2.73593 21.5504 2.83297 21.5786C2.93001 21.6068 3.03261 21.61 3.13123 21.588L7.84243 20.5404C8.40378 20.4166 8.91777 20.1342 9.32323 19.7268L18.9016 10.1484L13.8532 5.09995Z" fill="currentColor"/>
	</symbol>
	<symbol fill="none" id="closeChat" viewBox="0 0 24 24">
		<path d="M9.43468 12L14.7096 6.70057C15.1019 6.30647 15.096 5.67333 14.6964 5.28642C14.2968 4.8995 13.6549 4.90533 13.2626 5.29943L7.29039 11.2994C6.9032 11.6884 6.9032 12.3116 7.29039 12.7006L13.2626 18.7006C13.6549 19.0947 14.2968 19.1005 14.6964 18.7136C15.096 18.3267 15.1019 17.6935 14.7096 17.2994L9.43468 12Z" fill="currentColor"/>
	</symbol>
	<symbol fill="none" id="favourites" viewBox="0 0 24 24">
		<path d="M18 20L11.5 16.4444L5 20V5.77778C5 5.30628 5.19566 4.8541 5.54394 4.5207C5.89223 4.1873 6.3646 4 6.85714 4H16.1429C16.6354 4 17.1078 4.1873 17.4561 4.5207C17.8043 4.8541 18 5.30628 18 5.77778V20Z" stroke="currentColor" stroke-width="1.5" stroke-linecap="round" stroke-linejoin="round"/>
	</symbol>
	<symbol fill="none" id="settings" viewBox="0 0 24 24">
		<path d="M12 14C13.1046 14 14 13.1046 14 12C14 10.8954 13.1046 10 12 10C10.8954 10 10 10.8954 10 12C10 13.1046 10.8954 14 12 14Z" stroke="currentColor" stroke-width="1.5"/>
		<path d="M5.39923 5.88016L5.77423 5.23016C5.627 5.14523 5.45529 5.11282 5.28723 5.13826C5.11917 5.16369 4.96474 5.24546 4.84923 5.37016L5.39923 5.88016ZM3.40023 9.34416L2.68323 9.12216C2.63308 9.28461 2.6396 9.45928 2.70174 9.61754C2.76388 9.77579 2.87794 9.90824 3.02523 9.99316L3.40023 9.34416ZM3.39823 14.6552L3.02323 14.0052C2.87591 14.0903 2.76191 14.223 2.69995 14.3814C2.63798 14.5399 2.63173 14.7147 2.68223 14.8772L3.39823 14.6552ZM5.39823 18.1192L4.84823 18.6292C4.96374 18.7539 5.11817 18.8356 5.28623 18.8611C5.45429 18.8865 5.626 18.8541 5.77323 18.7692L5.39823 18.1192ZM9.99823 20.7742H9.24823C9.24823 21.1242 9.49123 21.4272 9.83223 21.5052L9.99823 20.7742ZM13.9992 20.7762L14.1662 21.5082C14.332 21.4703 14.48 21.3772 14.5859 21.2442C14.6918 21.1112 14.7494 20.9462 14.7492 20.7762H13.9992ZM18.6002 18.1202L18.2252 18.7702C18.3725 18.8551 18.5442 18.8875 18.7122 18.8621C18.8803 18.8366 19.0347 18.7549 19.1502 18.6302L18.6002 18.1202ZM20.5982 14.6542L21.3152 14.8762C21.3654 14.7137 21.3589 14.539 21.2967 14.3808C21.2346 14.2225 21.1205 14.0901 20.9732 14.0052L20.5982 14.6542ZM20.6002 9.34316L20.9752 9.99316C21.1226 9.90804 21.2366 9.77536 21.2985 9.61691C21.3605 9.45845 21.3667 9.28363 21.3162 9.12116L20.6002 9.34316ZM18.6002 5.87816L19.1502 5.36916C19.0347 5.24446 18.8803 5.16269 18.7122 5.13726C18.5442 5.11182 18.3725 5.14423 18.2252 5.22916L18.6002 5.87816ZM14.0002 3.22516H14.7502C14.7502 3.0553 14.6925 2.89049 14.5866 2.75769C14.4807 2.62489 14.3328 2.53198 14.1672 2.49416L14.0002 3.22516ZM10.0002 3.22316L9.83323 2.49116C9.66747 2.52902 9.51949 2.62208 9.41357 2.75508C9.30764 2.88808 9.25004 3.05313 9.25023 3.22316H10.0002ZM4.11723 9.56616C4.4812 8.38308 5.10702 7.29719 5.94823 6.38916L4.84823 5.36916C3.85418 6.44213 3.11454 7.72521 2.68423 9.12316L4.11723 9.56616ZM4.85523 16.1252C4.54653 15.5911 4.29833 15.0242 4.11523 14.4352L2.68323 14.8782C2.89908 15.5742 3.19189 16.244 3.55623 16.8752L4.85523 16.1252ZM5.94923 17.6112C5.53047 17.158 5.16353 16.6596 4.85523 16.1252L3.55623 16.8752C3.92031 17.5064 4.35366 18.094 4.84823 18.6292L5.94923 17.6112ZM13.8332 20.0462C12.6266 20.3208 11.3736 20.3201 10.1672 20.0442L9.83323 21.5062C11.2593 21.8326 12.7407 21.8337 14.1672 21.5092L13.8332 20.0462ZM19.8832 14.4342C19.5193 15.6172 18.8934 16.7031 18.0522 17.6112L19.1522 18.6312C20.1463 17.5582 20.8859 16.2751 21.3162 14.8772L19.8832 14.4342ZM19.1452 7.87516C19.4592 8.42383 19.7059 8.98716 19.8852 9.56516L21.3172 9.12216C21.1014 8.4261 20.8086 7.7563 20.4442 7.12516L19.1452 7.87516ZM18.0502 6.38916C18.4602 6.83216 18.8282 7.32916 19.1442 7.87516L20.4442 7.12516C20.0798 6.49389 19.6452 5.90425 19.1502 5.36916L18.0502 6.38916ZM10.1662 3.95416C11.3729 3.67953 12.6259 3.68022 13.8322 3.95616L14.1672 2.49416C12.7411 2.16768 11.2588 2.16665 9.83223 2.49116L10.1662 3.95416ZM10.7492 5.07216V3.22216H9.24923V5.07216H10.7492ZM7.37523 6.15416L5.77423 5.23016L5.02423 6.52916L6.62423 7.45316L7.37523 6.15416ZM4.62523 13.0832L3.02423 14.0072L3.77423 15.3062L5.37523 14.3822L4.62523 13.0832ZM5.37523 9.61816L3.77523 8.69516L3.02523 9.99516L4.62523 10.9182L5.37523 9.61816ZM10.7502 20.7752V18.9282H9.25023V20.7752H10.7502ZM6.62523 16.5472L5.02423 17.4712L5.77423 18.7712L7.37423 17.8462L6.62523 16.5472ZM18.9762 17.4712L17.3752 16.5472L16.6252 17.8462L18.2252 18.7702L18.9762 17.4712ZM14.7502 20.7772V18.9282H13.2502V20.7782L14.7502 20.7772ZM20.2262 8.69416L18.6252 9.61816L19.3752 10.9182L20.9752 9.99316L20.2262 8.69416ZM20.9742 14.0062L19.3752 13.0822L18.6252 14.3822L20.2252 15.3052L20.9742 14.0062ZM14.7502 5.07216V3.22516H13.2502V5.07216H14.7502ZM18.2262 5.23016L16.6252 6.15416L17.3752 7.45416L18.9762 6.52916L18.2262 5.23016ZM13.2502 5.07216C13.2502 7.18916 15.5422 8.51316 17.3752 7.45416L16.6252 6.15416C16.4352 6.26385 16.2197 6.3216 16.0004 6.32163C15.781 6.32165 15.5655 6.26394 15.3755 6.15429C15.1855 6.04464 15.0276 5.88692 14.9179 5.69697C14.8082 5.50702 14.7503 5.29153 14.7502 5.07216H13.2502ZM18.6252 9.61816C16.7922 10.6772 16.7922 13.3232 18.6252 14.3822L19.3752 13.0822C19.1852 12.9724 19.0274 12.8146 18.9177 12.6246C18.808 12.4346 18.7503 12.2191 18.7503 11.9997C18.7503 11.7802 18.808 11.5647 18.9177 11.3747C19.0274 11.1847 19.1852 11.0269 19.3752 10.9172L18.6252 9.61816ZM17.3752 16.5472C15.5422 15.4882 13.2502 16.8112 13.2502 18.9282H14.7502C14.7503 18.7088 14.8082 18.4933 14.9179 18.3033C15.0276 18.1134 15.1855 17.9557 15.3755 17.846C15.5655 17.7364 15.781 17.6787 16.0004 17.6787C16.2197 17.6787 16.4352 17.7365 16.6252 17.8462L17.3752 16.5472ZM10.7502 18.9282C10.7502 16.8112 8.45823 15.4882 6.62523 16.5472L7.37423 17.8462C7.56422 17.7365 7.78072 17.6787 8.0001 17.6787C8.21948 17.6787 8.43499 17.7364 8.625 17.846C8.81501 17.9557 8.97282 18.1134 9.08257 18.3033C9.19231 18.4933 9.25014 18.7088 9.25023 18.9282H10.7502ZM5.37523 14.3822C7.20823 13.3232 7.20823 10.6772 5.37523 9.61816L4.62523 10.9182C4.81524 11.0279 4.97303 11.1857 5.08273 11.3757C5.19243 11.5657 5.25018 11.7812 5.25018 12.0007C5.25018 12.2201 5.19243 12.4356 5.08273 12.6256C4.97303 12.8156 4.81524 12.9734 4.62523 13.0832L5.37523 14.3822ZM9.25023 5.07216C9.25014 5.29153 9.19231 5.50702 9.08257 5.69697C8.97282 5.88692 8.81501 6.04464 8.625 6.15429C8.43499 6.26394 8.21948 6.32165 8.0001 6.32163C7.78072 6.3216 7.56522 6.26385 7.37523 6.15416L6.62523 7.45416C8.45823 8.51216 10.7502 7.18916 10.7502 5.07216H9.25023Z" fill="currentColor"/>
	</symbol>
	<symbol fill="none" id="account" viewBox="0 0 24 24">
		<path d="M4 18C4 16.9391 4.42143 15.9217 5.17157 15.1716C5.92172 14.4214 6.93913 14 8 14H16C17.0609 14 18.0783 14.4214 18.8284 15.1716C19.5786 15.9217 20 16.9391 20 18C20 18.5304 19.7893 19.0391 19.4142 19.4142C19.0391 19.7893 18.5304 20 18 20H6C5.46957 20 4.96086 19.7893 4.58579 19.4142C4.21071 19.0391 4 18.5304 4 18Z" stroke="currentColor" stroke-width="1.5" stroke-linejoin="round"/>
		<path d="M12 10C13.6569 10 15 8.65685 15 7C15 5.34315 13.6569 4 12 4C10.3431 4 9 5.34315 9 7C9 8.65685 10.3431 10 12 10Z" stroke-width="1.5" stroke="currentColor"/>
	</symbol>
	<symbol fill="none" id="darkTheme" viewBox="0 0 24 24">
		<path d="M19.9002 2.30704C19.8648 2.21644 19.803 2.13861 19.7227 2.08374C19.6424 2.02887 19.5474 1.99951 19.4502 1.99951C19.3529 1.99951 19.2579 2.02887 19.1776 2.08374C19.0973 2.13861 19.0355 2.21644 19.0002 2.30704L18.5702 3.40204C18.5463 3.46406 18.5097 3.52043 18.4629 3.5676C18.4161 3.61476 18.36 3.65169 18.2982 3.67604L17.2072 4.10804C17.1168 4.14403 17.0393 4.2063 16.9848 4.28679C16.9302 4.36728 16.901 4.46229 16.901 4.55954C16.901 4.6568 16.9302 4.75181 16.9848 4.8323C17.0393 4.91279 17.1168 4.97506 17.2072 5.01104L18.2982 5.44304C18.3599 5.46729 18.4159 5.50406 18.4628 5.55105C18.5096 5.59804 18.5461 5.65422 18.5702 5.71604L19.0002 6.81004C19.1622 7.22004 19.7402 7.22004 19.9002 6.81004L20.3302 5.71504C20.3543 5.65312 20.391 5.59688 20.438 5.54989C20.485 5.50289 20.5412 5.46617 20.6032 5.44204L21.6942 5.01004C21.7845 4.97406 21.862 4.91179 21.9166 4.8313C21.9711 4.75081 22.0003 4.65579 22.0003 4.55854C22.0003 4.46129 21.9711 4.36628 21.9166 4.28579C21.862 4.2053 21.7845 4.14303 21.6942 4.10704L20.6032 3.67504C20.5411 3.65081 20.4848 3.61393 20.4378 3.56676C20.3908 3.51959 20.3542 3.46315 20.3302 3.40104L19.9002 2.30704ZM16.0332 8.13004C15.9978 8.03944 15.936 7.96161 15.8557 7.90674C15.7754 7.85187 15.6804 7.82251 15.5832 7.82251C15.4859 7.82251 15.3909 7.85187 15.3106 7.90674C15.2303 7.96161 15.1685 8.03944 15.1332 8.13004L14.9762 8.52904C14.9521 8.59087 14.9156 8.64705 14.8688 8.69404C14.8219 8.74103 14.7659 8.7778 14.7042 8.80204L14.3062 8.96004C14.2158 8.99603 14.1383 9.0583 14.0838 9.13879C14.0292 9.21928 14 9.31429 14 9.41154C14 9.50879 14.0292 9.60381 14.0838 9.6843C14.1383 9.76479 14.2158 9.82706 14.3062 9.86304L14.7042 10.02C14.8292 10.07 14.9272 10.168 14.9762 10.294L15.1332 10.693C15.2942 11.103 15.8722 11.103 16.0332 10.693L16.1902 10.293C16.2142 10.2312 16.2507 10.175 16.2976 10.128C16.3444 10.0811 16.4004 10.0443 16.4622 10.02L16.8602 9.86304C16.9505 9.82706 17.028 9.76479 17.0826 9.6843C17.1371 9.60381 17.1663 9.50879 17.1663 9.41154C17.1663 9.31429 17.1371 9.21928 17.0826 9.13879C17.028 9.0583 16.9505 8.99603 16.8602 8.96004L16.4622 8.80204C16.4004 8.7778 16.3444 8.74103 16.2976 8.69404C16.2507 8.64705 16.2142 8.59087 16.1902 8.52904L16.0332 8.13004Z" fill="currentColor"/>
		<path d="M12 22C17.523 22 22 17.523 22 12C22 11.537 21.306 11.46 21.067 11.857C20.5572 12.7013 19.862 13.4186 19.034 13.9545C18.206 14.4903 17.2669 14.8307 16.2878 14.9499C15.3088 15.0691 14.3154 14.9639 13.383 14.6423C12.4507 14.3207 11.6037 13.7911 10.9063 13.0937C10.2089 12.3963 9.67932 11.5493 9.35772 10.617C9.03613 9.68457 8.93093 8.69123 9.0501 7.71217C9.16926 6.73311 9.50967 5.794 10.0455 4.96599C10.5814 4.13797 11.2987 3.44275 12.143 2.933C12.54 2.693 12.463 2 12 2C6.477 2 2 6.477 2 12C2 17.523 6.477 22 12 22Z" fill="currentColor"/>
	</symbol>
</svg>