<svg xmlns="http://www.w3.org/2000/svg">
	<symbol fill="none" id="burgerMenu" viewBox="0 0 24 24">
		<path d="M4.5 12H19.5M4.5 7H19.5M4.5 17H19.5" stroke="currentColor" stroke-width="2" stroke-linecap="round"/>
	</symbol>
	<symbol fill="none" id="clearSearch" viewBox="0 0 24 24">
		<path d="M16.875 7.125L7.125 16.875M7.125 7.125L16.875 16.875" stroke="currentColor" stroke-width="2.25" stroke-linecap="round" stroke-linejoin="round"/>
	</symbol>
	<symbol fill="none" id="searchMessage" viewBox="0 0 24 24">
		<path d="M10.5 5C13.5376 5 16 7.46243 16 10.5C16 11.8388 15.5217 13.0659 14.7266 14.0196L18.8536 18.1464C19.0488 18.3417 19.0488 18.6583 18.8536 18.8536C18.68 19.0271 18.4106 19.0464 18.2157 18.9114L18.1464 18.8536L14.0196 14.7266C13.0659 15.5217 11.8388 16 10.5 16C7.46243 16 5 13.5376 5 10.5C5 7.46243 7.46243 5 10.5 5ZM10.5 6C8.01472 6 6 8.01472 6 10.5C6 12.9853 8.01472 15 10.5 15C12.9853 15 15 12.9853 15 10.5C15 8.01472 12.9853 6 10.5 6Z" fill="currentColor"/>
	</symbol>
	<symbol fill="none" id="chatData" viewBox="0 0 24 24">
		<path d="M12.4809 14.8423H17.4C18.2962 14.8423 19 14.1288 19 13.2764V6.56582C19 5.71348 18.2962 5 17.4 5H6.6C5.70383 5 5 5.71348 5 6.56582V13.2764C5 14.1288 5.70383 14.8423 6.6 14.8423H8.19908L8.2 18L8.20346 17.9997L8.20502 17.9988L12.4809 14.8423ZM8.79895 18.8034C8.35668 19.1298 7.73 19.0406 7.39921 18.6042C7.26989 18.4335 7.2 18.2262 7.2 18.0133L7.19937 15.8423H6.6C5.16406 15.8423 4 14.6935 4 13.2764V6.56582C4 5.14876 5.16406 4 6.6 4H17.4C18.8359 4 20 5.14876 20 6.56582V13.2764C20 14.6935 18.8359 15.8423 17.4 15.8423H12.81L8.79895 18.8034Z" fill="currentColor"/>
		<path fill-rule="evenodd" clip-rule="evenodd" d="M12 6.5C12.2761 6.5 12.5 6.72386 12.5 7V13C12.5 13.2761 12.2761 13.5 12 13.5C11.7239 13.5 11.5 13.2761 11.5 13V7C11.5 6.72386 11.7239 6.5 12 6.5ZM9 7.5C9.27614 7.5 9.5 7.72386 9.5 8V12C9.5 12.2761 9.27614 12.5 9 12.5C8.72386 12.5 8.5 12.2761 8.5 12V8C8.5 7.72386 8.72386 7.5 9 7.5ZM15 8C15.2761 8 15.5 8.22386 15.5 8.5V11.5C15.5 11.7761 15.2761 12 15 12C14.7239 12 14.5 11.7761 14.5 11.5V8.5C14.5 8.22386 14.7239 8 15 8Z" fill="currentColor"/>
	</symbol>
	<symbol fill="none" id="moreOptions" viewBox="0 0 24 24">
		<path d="M12 8C11.3096 8 10.75 7.44036 10.75 6.75C10.75 6.05964 11.3096 5.5 12 5.5C12.6904 5.5 13.25 6.05964 13.25 6.75C13.25 7.44036 12.6904 8 12 8ZM12 13.25C11.3096 13.25 10.75 12.6904 10.75 12C10.75 11.3096 11.3096 10.75 12 10.75C12.6904 10.75 13.25 11.3096 13.25 12C13.25 12.6904 12.6904 13.25 12 13.25ZM10.75 17.25C10.75 17.9404 11.3096 18.5 12 18.5C12.6904 18.5 13.25 17.9404 13.25 17.25C13.25 16.5596 12.6904 16 12 16C11.3096 16 10.75 16.5596 10.75 17.25Z" fill="currentColor"/>
	</symbol>
	<symbol fill="none" id="scrollToBottom" viewBox="0 0 24 24">
		<path d="M12 6L12 17M12 17L7 12M12 17L17 12" stroke="currentColor" stroke-linecap="round" stroke-linejoin="round"/>
	</symbol>
	<symbol fill="none" id="newChat" viewBox="0 0 24 24">
		<path d="M15.5044 3.44755C16.1765 2.79092 17.0804 2.42574 18.02 2.43121C18.9596 2.43668 19.8592 2.81237 20.5236 3.47678C21.188 4.14119 21.5637 5.04076 21.5692 5.98036C21.5746 6.91997 21.2095 7.82385 20.5528 8.49595L19.75 9.29875L14.7016 4.25035L15.5044 3.44755ZM13.8532 5.09995L4.25443 14.6988C3.86176 15.0921 3.58914 15.589 3.46843 16.1316L2.41483 20.8716C2.39279 20.9702 2.39602 21.0728 2.42422 21.1698C2.45242 21.2669 2.50467 21.3552 2.57613 21.4267C2.64758 21.4981 2.73593 21.5504 2.83297 21.5786C2.93001 21.6068 3.03261 21.61 3.13123 21.588L7.84243 20.5404C8.40378 20.4166 8.91777 20.1342 9.32323 19.7268L18.9016 10.1484L13.8532 5.09995Z" fill="currentColor"/>
	</symbol>
	<symbol fill="none" id="closeChat" viewBox="0 0 24 24">
		<path d="M9.43468 12L14.7096 6.70057C15.1019 6.30647 15.096 5.67333 14.6964 5.28642C14.2968 4.8995 13.6549 4.90533 13.2626 5.29943L7.29039 11.2994C6.9032 11.6884 6.9032 12.3116 7.29039 12.7006L13.2626 18.7006C13.6549 19.0947 14.2968 19.1005 14.6964 18.7136C15.096 18.3267 15.1019 17.6935 14.7096 17.2994L9.43468 12Z" fill="currentColor"/>
	</symbol>
	<symbol fill="none" id="favourites" viewBox="0 0 24 24">
		<path d="M19 21L12 17L5 21V5C5 4.46957 5.21071 3.96086 5.58579 3.58579C5.96086 3.21071 6.46957 3 7 3H17C17.5304 3 18.0391 3.21071 18.4142 3.58579C18.7893 3.96086 19 4.46957 19 5V21Z" stroke="currentColor" stroke-width="2" stroke-linecap="round" stroke-linejoin="round"/>
	</symbol>
	<symbol fill="none" id="settings" viewBox="0 0 24 24">
		<path d="M3.34033 17C2.91708 16.2691 2.58813 15.4875 2.36133 14.674C2.85468 14.4232 3.26904 14.0408 3.55856 13.5691C3.84809 13.0974 4.00149 12.5548 4.0018 12.0014C4.00211 11.4479 3.84932 10.9052 3.56032 10.4332C3.27133 9.96119 2.8574 9.57833 2.36433 9.32697C2.81648 7.69273 3.67677 6.2003 4.86433 4.98997C5.32843 5.29198 5.86707 5.45964 6.42058 5.47441C6.9741 5.48917 7.52091 5.35045 8.00045 5.07362C8.47999 4.79678 8.87357 4.39263 9.13758 3.90591C9.4016 3.41919 9.52577 2.8689 9.49633 2.31597C11.1386 1.89236 12.8616 1.89339 14.5033 2.31897C14.4745 2.87165 14.5991 3.42154 14.8633 3.90781C15.1276 4.39408 15.5212 4.79778 16.0006 5.07424C16.4801 5.3507 17.0266 5.48915 17.5799 5.47428C18.1331 5.45941 18.6714 5.29179 19.1353 4.98997C20.3217 6.20128 21.1827 7.6928 21.6383 9.32597C21.145 9.57687 20.7307 9.95935 20.4413 10.4311C20.1519 10.9028 19.9986 11.4454 19.9984 11.9989C19.9981 12.5523 20.151 13.095 20.4401 13.567C20.7292 14.0389 21.1432 14.4217 21.6363 14.673C21.1839 16.3073 20.3232 17.7998 19.1353 19.01C18.6712 18.708 18.1326 18.5403 17.5791 18.5255C17.0256 18.5108 16.4787 18.6495 15.9992 18.9263C15.5197 19.2032 15.1261 19.6073 14.8621 20.094C14.5981 20.5807 14.4739 21.131 14.5033 21.684C12.8612 22.1079 11.1382 22.1072 9.49633 21.682C9.52524 21.1294 9.40075 20.5795 9.13662 20.0933C8.87249 19.607 8.47901 19.2033 7.99971 18.9267C7.5204 18.6502 6.97395 18.5116 6.42078 18.5263C5.86761 18.541 5.32928 18.7084 4.86533 19.01C4.27382 18.4071 3.76207 17.7317 3.34033 17ZM8.99933 17.196C10.0645 17.8111 10.8656 18.7973 11.2493 19.966C11.7493 20.0126 12.249 20.0133 12.7483 19.968C13.1316 18.7986 13.9328 17.8116 14.9983 17.196C16.0642 16.5804 17.3196 16.3796 18.5243 16.632C18.8143 16.2226 19.0637 15.79 19.2723 15.334C18.4527 14.4169 17.9998 13.2299 18.0003 12C18.0003 10.74 18.4703 9.56297 19.2733 8.66597C19.0645 8.21078 18.8134 7.77621 18.5233 7.36797C17.3196 7.61961 16.0653 7.41882 15.0003 6.80397C13.9351 6.18883 13.1341 5.20263 12.7503 4.03397C12.2503 3.98664 11.7503 3.9863 11.2503 4.03297C10.8668 5.20201 10.0657 6.18859 9.00033 6.80397C7.93448 7.41956 6.67902 7.62038 5.47433 7.36797C5.18366 7.7773 4.93466 8.20997 4.72733 8.66597C5.54733 9.58288 6.00055 10.7699 6.00033 12C6.00033 13.26 5.52933 14.437 4.72733 15.334C4.93615 15.7892 5.18725 16.2237 5.47733 16.632C6.68106 16.3803 7.93531 16.5811 9.00033 17.196M12.0003 15C11.2047 15 10.4416 14.6839 9.87901 14.1213C9.3164 13.5587 9.00033 12.7956 9.00033 12C9.00033 11.2043 9.3164 10.4413 9.87901 9.87865C10.4416 9.31604 11.2047 8.99997 12.0003 8.99997C12.796 8.99997 13.559 9.31604 14.1216 9.87865C14.6843 10.4413 15.0003 11.2043 15.0003 12C15.0003 12.7956 14.6843 13.5587 14.1216 14.1213C13.559 14.6839 12.796 15 12.0003 15ZM12.0003 13C12.2655 13 12.5199 12.8946 12.7074 12.7071C12.895 12.5195 13.0003 12.2652 13.0003 12C13.0003 11.7348 12.895 11.4804 12.7074 11.2929C12.5199 11.1053 12.2655 11 12.0003 11C11.7351 11 11.4808 11.1053 11.2932 11.2929C11.1057 11.4804 11.0003 11.7348 11.0003 12C11.0003 12.2652 11.1057 12.5195 11.2932 12.7071C11.4808 12.8946 11.7351 13 12.0003 13Z" fill="currentColor"/>
	</symbol>
	<symbol fill="none" id="account" viewBox="0 0 24 24">
		<path d="M4 18C4 16.9391 4.42143 15.9217 5.17157 15.1716C5.92172 14.4214 6.93913 14 8 14H16C17.0609 14 18.0783 14.4214 18.8284 15.1716C19.5786 15.9217 20 16.9391 20 18C20 18.5304 19.7893 19.0391 19.4142 19.4142C19.0391 19.7893 18.5304 20 18 20H6C5.46957 20 4.96086 19.7893 4.58579 19.4142C4.21071 19.0391 4 18.5304 4 18Z" stroke="currentColor" stroke-width="2" stroke-linejoin="round"/>
		<path d="M12 10C13.6569 10 15 8.65685 15 7C15 5.34315 13.6569 4 12 4C10.3431 4 9 5.34315 9 7C9 8.65685 10.3431 10 12 10Z" stroke="currentColor" stroke-width="2"/>
	</symbol>
</svg>