<svg xmlns="http://www.w3.org/2000/svg">
	<symbol fill="none" id="burgerMenu" viewBox="0 0 24 24">
		<path d="M4.5 12H19.5M4.5 7H19.5M4.5 17H19.5" stroke="currentColor" stroke-width="2" stroke-linecap="round"/>
	</symbol>
	<symbol fill="none" id="clearSearch" viewBox="0 0 24 24">
		<path d="M16.875 7.125L7.125 16.875M7.125 7.125L16.875 16.875" stroke="currentColor" stroke-width="2.25" stroke-linecap="round" stroke-linejoin="round"/>
	</symbol>
	<symbol fill="none" id="searchMessage" viewBox="0 0 24 24">
		<path d="M10.5 5C13.5376 5 16 7.46243 16 10.5C16 11.8388 15.5217 13.0659 14.7266 14.0196L18.8536 18.1464C19.0488 18.3417 19.0488 18.6583 18.8536 18.8536C18.68 19.0271 18.4106 19.0464 18.2157 18.9114L18.1464 18.8536L14.0196 14.7266C13.0659 15.5217 11.8388 16 10.5 16C7.46243 16 5 13.5376 5 10.5C5 7.46243 7.46243 5 10.5 5ZM10.5 6C8.01472 6 6 8.01472 6 10.5C6 12.9853 8.01472 15 10.5 15C12.9853 15 15 12.9853 15 10.5C15 8.01472 12.9853 6 10.5 6Z" fill="currentColor"/>
	</symbol>
	<symbol fill="none" id="chatData" viewBox="0 0 24 24">
		<path d="M12.4809 14.8423H17.4C18.2962 14.8423 19 14.1288 19 13.2764V6.56582C19 5.71348 18.2962 5 17.4 5H6.6C5.70383 5 5 5.71348 5 6.56582V13.2764C5 14.1288 5.70383 14.8423 6.6 14.8423H8.19908L8.2 18L8.20346 17.9997L8.20502 17.9988L12.4809 14.8423ZM8.79895 18.8034C8.35668 19.1298 7.73 19.0406 7.39921 18.6042C7.26989 18.4335 7.2 18.2262 7.2 18.0133L7.19937 15.8423H6.6C5.16406 15.8423 4 14.6935 4 13.2764V6.56582C4 5.14876 5.16406 4 6.6 4H17.4C18.8359 4 20 5.14876 20 6.56582V13.2764C20 14.6935 18.8359 15.8423 17.4 15.8423H12.81L8.79895 18.8034Z" fill="currentColor"/>
		<path fill-rule="evenodd" clip-rule="evenodd" d="M12 6.5C12.2761 6.5 12.5 6.72386 12.5 7V13C12.5 13.2761 12.2761 13.5 12 13.5C11.7239 13.5 11.5 13.2761 11.5 13V7C11.5 6.72386 11.7239 6.5 12 6.5ZM9 7.5C9.27614 7.5 9.5 7.72386 9.5 8V12C9.5 12.2761 9.27614 12.5 9 12.5C8.72386 12.5 8.5 12.2761 8.5 12V8C8.5 7.72386 8.72386 7.5 9 7.5ZM15 8C15.2761 8 15.5 8.22386 15.5 8.5V11.5C15.5 11.7761 15.2761 12 15 12C14.7239 12 14.5 11.7761 14.5 11.5V8.5C14.5 8.22386 14.7239 8 15 8Z" fill="currentColor"/>
	</symbol>
	<symbol fill="none" id="moreOptions" viewBox="0 0 24 24">
		<path d="M12 8C11.3096 8 10.75 7.44036 10.75 6.75C10.75 6.05964 11.3096 5.5 12 5.5C12.6904 5.5 13.25 6.05964 13.25 6.75C13.25 7.44036 12.6904 8 12 8ZM12 13.25C11.3096 13.25 10.75 12.6904 10.75 12C10.75 11.3096 11.3096 10.75 12 10.75C12.6904 10.75 13.25 11.3096 13.25 12C13.25 12.6904 12.6904 13.25 12 13.25ZM10.75 17.25C10.75 17.9404 11.3096 18.5 12 18.5C12.6904 18.5 13.25 17.9404 13.25 17.25C13.25 16.5596 12.6904 16 12 16C11.3096 16 10.75 16.5596 10.75 17.25Z" fill="currentColor"/>
	</symbol>
	<symbol fill="none" id="scrollToBottom" viewBox="0 0 24 24">
		<path d="M12 6L12 17M12 17L7 12M12 17L17 12" stroke="currentColor" stroke-linecap="round" stroke-linejoin="round"/>
	</symbol>
	<symbol fill="none" id="newChat" viewBox="0 0 24 24">
		<path d="M15.5044 3.44755C16.1765 2.79092 17.0804 2.42574 18.02 2.43121C18.9596 2.43668 19.8592 2.81237 20.5236 3.47678C21.188 4.14119 21.5637 5.04076 21.5692 5.98036C21.5746 6.91997 21.2095 7.82385 20.5528 8.49595L19.75 9.29875L14.7016 4.25035L15.5044 3.44755ZM13.8532 5.09995L4.25443 14.6988C3.86176 15.0921 3.58914 15.589 3.46843 16.1316L2.41483 20.8716C2.39279 20.9702 2.39602 21.0728 2.42422 21.1698C2.45242 21.2669 2.50467 21.3552 2.57613 21.4267C2.64758 21.4981 2.73593 21.5504 2.83297 21.5786C2.93001 21.6068 3.03261 21.61 3.13123 21.588L7.84243 20.5404C8.40378 20.4166 8.91777 20.1342 9.32323 19.7268L18.9016 10.1484L13.8532 5.09995Z" fill="currentColor"/>
	</symbol>
	<symbol fill="none" id="closeChat" viewBox="0 0 24 24">
		<path d="M9.43468 12L14.7096 6.70057C15.1019 6.30647 15.096 5.67333 14.6964 5.28642C14.2968 4.8995 13.6549 4.90533 13.2626 5.29943L7.29039 11.2994C6.9032 11.6884 6.9032 12.3116 7.29039 12.7006L13.2626 18.7006C13.6549 19.0947 14.2968 19.1005 14.6964 18.7136C15.096 18.3267 15.1019 17.6935 14.7096 17.2994L9.43468 12Z" fill="currentColor"/>
	</symbol>
</svg>